# xmcd
#
# Track frame offsets:
#	150
#	8987
#	17519
#	28308
#	37036
#	47797
#	57630
#	67367
#	77119
#	88543
#	98472
#	107858
#
# Disc length: 1609 seconds
# Revision: 0
# Processed by: cddbd v1.5.2PL0 Copyright (c) Steve Scherf et al.
# Submitted via: dBpowerAMP V12.0
#
DISCID=a006470c
DTITLE=Chet Atkins - Caribbean Guitar
DYEAR=1900
DGENRE=Country
TTITLE0=Mayan Dance
TTITLE1=Yellow Bird
TTITLE2=Wild Orchids
TTITLE3=The Bandit
TTITLE4=Jungle Dream
TTITLE5=The Banana Boat Song
TTITLE6=Montego Bay
TTITLE7=Theme From "Come September"
TTITLE8=Moon Over Miami
TTITLE9=Come To The Mardi Gras
TTITLE10=The Enchanted Sea
TTITLE11=Temptation
EXTD=
EXTT0=
EXTT1=
EXTT2=
EXTT3=
EXTT4=
EXTT5=
EXTT6=
EXTT7=
EXTT8=
EXTT9=
EXTT10=
EXTT11=
PLAYORDER=
